<svg xmlns="http://www.w3.org/2000/svg" width="14" height="14" viewBox="0 0 14 14" fill="none">
  <path d="M5.25004 4.08301C5.25004 3.61888 5.43441 3.17376 5.7626 2.84557C6.09079 2.51738 6.53591 2.33301 7.00004 2.33301C7.46417 2.33301 7.90929 2.51738 8.23748 2.84557C8.56567 3.17376 8.75004 3.61888 8.75004 4.08301M5.25004 4.08301H8.75004M5.25004 4.08301H3.50004M8.75004 4.08301H10.5M3.50004 4.08301H2.33337M3.50004 4.08301V10.4997C3.50004 10.8091 3.62296 11.1058 3.84175 11.3246C4.06054 11.5434 4.35729 11.6663 4.66671 11.6663H9.33337C9.64279 11.6663 9.93954 11.5434 10.1583 11.3246C10.3771 11.1058 10.5 10.8091 10.5 10.4997V4.08301M10.5 4.08301H11.6667" stroke="#BEBEC3" stroke-width="0.825805" stroke-linecap="round" stroke-linejoin="round"/>
</svg>