<svg width="24" height="24" viewBox="0 0 24 24" fill="none" xmlns="http://www.w3.org/2000/svg">
<path d="M7.99951 7V15C7.99951 15.5304 8.21023 16.0391 8.5853 16.4142C8.96037 16.7893 9.46908 17 9.99951 17H15.9995M7.99951 7V5C7.99951 4.46957 8.21023 3.96086 8.5853 3.58579C8.96037 3.21071 9.46908 3 9.99951 3H14.5855C14.8507 3.00006 15.105 3.10545 15.2925 3.293L19.7065 7.707C19.8941 7.89449 19.9995 8.1488 19.9995 8.414V15C19.9995 15.5304 19.7888 16.0391 19.4137 16.4142C19.0387 16.7893 18.5299 17 17.9995 17H15.9995M7.99951 7H5.99951C5.46908 7 4.96037 7.21071 4.5853 7.58579C4.21023 7.96086 3.99951 8.46957 3.99951 9V19C3.99951 19.5304 4.21023 20.0391 4.5853 20.4142C4.96037 20.7893 5.46908 21 5.99951 21H13.9995C14.5299 21 15.0387 20.7893 15.4137 20.4142C15.7888 20.0391 15.9995 19.5304 15.9995 19V17" stroke="#BEBEC3" stroke-width="1.41567" stroke-linecap="round" stroke-linejoin="round"/>
</svg>
