<svg xmlns="http://www.w3.org/2000/svg" width="14" height="14" viewBox="0 0 14 14" fill="none">
<g clip-path="url(#clip0_422_473)">
<path d="M10.8889 11.6667H2.33332V3.11115H7.47443L8.25221 2.33337H2.33332C2.12704 2.33337 1.92921 2.41532 1.78335 2.56118C1.63749 2.70704 1.55554 2.90487 1.55554 3.11115V11.6667C1.55554 11.873 1.63749 12.0708 1.78335 12.2167C1.92921 12.3625 2.12704 12.4445 2.33332 12.4445H10.8889C11.0952 12.4445 11.293 12.3625 11.4388 12.2167C11.5847 12.0708 11.6667 11.873 11.6667 11.6667V5.83337L10.8889 6.61115V11.6667Z" fill="#BEBEC3"/>
<path d="M13.0395 2.27116L11.7289 0.960602C11.6707 0.90228 11.6016 0.856008 11.5256 0.824435C11.4495 0.792863 11.3679 0.776611 11.2856 0.776611C11.2032 0.776611 11.1216 0.792863 11.0456 0.824435C10.9695 0.856008 10.9004 0.90228 10.8422 0.960602L5.51057 6.32338L5.0789 8.19394C5.06051 8.28461 5.06244 8.37823 5.08456 8.46807C5.10668 8.5579 5.14843 8.64172 5.20681 8.71349C5.2652 8.78526 5.33876 8.8432 5.42222 8.88315C5.50567 8.92309 5.59694 8.94404 5.68946 8.94449C5.73727 8.94976 5.78553 8.94976 5.83334 8.94449L7.71946 8.52838L13.0395 3.15782C13.0978 3.09966 13.1441 3.03056 13.1756 2.95449C13.2072 2.87841 13.2234 2.79686 13.2234 2.71449C13.2234 2.63212 13.2072 2.55057 13.1756 2.47449C13.1441 2.39842 13.0978 2.32932 13.0395 2.27116ZM7.31501 7.80894L5.89168 8.12394L6.22223 6.71227L10.2356 2.67171L11.3322 3.76838L7.31501 7.80894ZM11.7717 3.32894L10.675 2.23227L11.2778 1.61782L12.3822 2.72227L11.7717 3.32894Z" fill="#BEBEC3"/>
</g>
<defs>
<clipPath id="clip0_422_473">
<rect width="14" height="14" fill="white"/>
</clipPath>
</defs>
</svg>