<svg width="10" height="12" viewBox="0 0 10 12" fill="none" xmlns="http://www.w3.org/2000/svg">
<path d="M1.49992 0.166626C1.1905 0.166626 0.893753 0.289542 0.674961 0.508335C0.456168 0.727127 0.333252 1.02387 0.333252 1.33329V10.6666C0.333252 10.976 0.456168 11.2728 0.674961 11.4916C0.893753 11.7104 1.1905 11.8333 1.49992 11.8333H8.49992C8.80934 11.8333 9.10608 11.7104 9.32488 11.4916C9.54367 11.2728 9.66659 10.976 9.66659 10.6666V4.73296C9.66652 4.42357 9.54356 4.12687 9.32475 3.90813L5.92509 0.508459C5.70634 0.289652 5.40965 0.166692 5.10025 0.166626H1.49992ZM1.20825 1.33329C1.20825 1.25594 1.23898 1.18175 1.29368 1.12705C1.34838 1.07236 1.42256 1.04163 1.49992 1.04163H4.99992V3.66663C4.99992 3.97605 5.12284 4.27279 5.34163 4.49158C5.56042 4.71038 5.85717 4.83329 6.16659 4.83329H8.79159V10.6666C8.79159 10.744 8.76086 10.8182 8.70616 10.8729C8.65146 10.9276 8.57727 10.9583 8.49992 10.9583H1.49992C1.42256 10.9583 1.34838 10.9276 1.29368 10.8729C1.23898 10.8182 1.20825 10.744 1.20825 10.6666V1.33329ZM8.13825 3.95829H6.16659C6.08923 3.95829 6.01504 3.92756 5.96035 3.87287C5.90565 3.81817 5.87492 3.74398 5.87492 3.66663V1.69496L8.13825 3.95829Z" fill="#BEBEC3"/>
</svg>
