<svg width="8" height="12" viewBox="0 0 8 12" fill="none" xmlns="http://www.w3.org/2000/svg">
<path d="M4.06195 11C3.55752 11 3.12389 10.9322 2.76106 10.7967C2.39823 10.6642 2.09587 10.4886 1.85398 10.2699C1.61504 10.0542 1.42478 9.82317 1.28319 9.57671L2.11504 8.96673C2.20944 9.09612 2.32891 9.24399 2.47345 9.41035C2.61799 9.57979 2.81563 9.72613 3.06637 9.84935C3.32006 9.97566 3.65192 10.0388 4.06195 10.0388C4.61062 10.0388 5.06342 9.90019 5.42035 9.62292C5.77729 9.34566 5.95575 8.91128 5.95575 8.31978V6.878H5.86726C5.79056 7.00739 5.68142 7.16759 5.53982 7.3586C5.40118 7.54652 5.20059 7.71442 4.93805 7.86229C4.67847 8.00709 4.32743 8.07948 3.88496 8.07948C3.33628 8.07948 2.84366 7.94393 2.40708 7.67283C1.97345 7.40173 1.62979 7.00739 1.37611 6.48983C1.12537 5.97227 1 5.34381 1 4.60444C1 3.87739 1.12242 3.2443 1.36726 2.70518C1.61209 2.16297 1.9528 1.74399 2.38938 1.44824C2.82596 1.14941 3.33038 1 3.90265 1C4.34513 1 4.69617 1.07702 4.95575 1.23105C5.21829 1.38201 5.41888 1.55453 5.55752 1.74861C5.69912 1.93962 5.80826 2.09673 5.88496 2.21996H5.99115V1.09242H7V8.39372C7 9.0037 6.86726 9.49969 6.60177 9.8817C6.33923 10.2668 5.98525 10.5487 5.53982 10.7274C5.09734 10.9091 4.60472 11 4.06195 11ZM4.02655 7.09982C4.44543 7.09982 4.79941 6.99969 5.0885 6.79945C5.37758 6.5992 5.59735 6.31115 5.74779 5.93531C5.89823 5.55946 5.97345 5.10967 5.97345 4.58595C5.97345 4.07455 5.89971 3.62323 5.75221 3.23198C5.60472 2.84073 5.38643 2.5342 5.09734 2.31238C4.80826 2.09057 4.45133 1.97967 4.02655 1.97967C3.58407 1.97967 3.21534 2.09673 2.92035 2.33087C2.62832 2.565 2.40855 2.87924 2.26106 3.27357C2.11652 3.6679 2.04425 4.10536 2.04425 4.58595C2.04425 5.07887 2.11799 5.51479 2.26549 5.89372C2.41593 6.26956 2.63717 6.56531 2.9292 6.78096C3.22419 6.99353 3.58997 7.09982 4.02655 7.09982Z" fill="#5A59DB" stroke="#5A59DB" stroke-width="0.5"/>
</svg>
