<svg width="32" height="32" viewBox="0 0 32 32" fill="none" xmlns="http://www.w3.org/2000/svg">
<g clip-path="url(#clip0_789_941)">
<rect width="32" height="32" rx="6.85714" fill="#3D3DAB"/>
<g clip-path="url(#clip1_789_941)">
<path d="M-0.0554671 24.2391C-3.83343 29.2481 -5.53139 33.5779 -4.02445 35.0848C-1.902 37.2073 5.73882 32.9624 12.9551 25.6612C20.1715 18.3599 24.5013 10.804 22.3788 8.68156C21.0205 7.30197 18.2269 7.99116 13.791 10.9838" stroke="white" stroke-width="2.12245" stroke-linecap="round" stroke-linejoin="round"/>
<path d="M19.8606 17.2997C20.6005 18.917 20.922 20.6942 20.7957 22.4681C20.6694 24.242 20.0993 25.9557 19.1379 27.4518C18.1764 28.9479 16.8544 30.1784 15.2932 31.0302C13.7321 31.882 11.9819 32.3278 10.2035 32.3267C8.78274 32.3272 7.37599 32.0459 6.06473 31.4989M1.71371 28.0818C0.180994 26.0382 -0.563128 23.5103 -0.38204 20.9622C-0.200952 18.414 0.893192 16.0168 2.69952 14.2105C4.50584 12.4041 6.90311 11.31 9.45121 11.1289C11.9993 10.9478 14.8572 10.8571 16.5714 12.5713" stroke="white" stroke-width="2.12245" stroke-linecap="round" stroke-linejoin="round"/>
</g>
</g>
<rect x="1.14286" y="1.14286" width="29.7143" height="29.7143" rx="5.71429" stroke="white" stroke-width="2.28571"/>
<defs>
<clipPath id="clip0_789_941">
<rect width="32" height="32" rx="6.85714" fill="white"/>
</clipPath>
<clipPath id="clip1_789_941">
<rect width="29.7143" height="29.7143" fill="white" transform="translate(-5.71436 6.85742)"/>
</clipPath>
</defs>
</svg>
