<svg width="90" height="66" viewBox="0 0 90 66" fill="none" xmlns="http://www.w3.org/2000/svg">
<rect x="32.75" y="9.75" width="24.5" height="24.5" rx="4.25" stroke="#BEBEC3" stroke-width="1.5"/>
<path d="M35.6432 16.2687C35.456 16.6037 35.4516 17.0264 35.6343 17.3933C35.7146 17.5568 35.8577 17.6565 36.0119 17.6565H53.9881C54.1423 17.6565 54.2854 17.5568 54.3657 17.3933C54.5484 17.0264 54.544 16.6037 54.3568 16.2687C54.2702 16.1139 54.128 16.0215 53.9762 16.0215H36.0238C35.872 16.0215 35.7298 16.1139 35.6432 16.2687Z" fill="#BEBEC3"/>
<path d="M39.0184 22.1649C38.0686 22.3689 37.2434 23.3037 37.0594 24.3964C37.0237 24.5939 37 25.8709 37 27.3388C37 30.1957 37 30.2154 37.3621 30.4261C37.5996 30.5577 37.8845 30.505 38.0745 30.2812C38.211 30.1167 38.217 30.0706 38.2467 28.9186L38.2763 27.7206L39.5408 27.7009L40.7993 27.6877V28.8067C40.7993 30.0574 40.8409 30.2352 41.1615 30.4261C41.4167 30.5709 41.7017 30.4985 41.8917 30.2483L42.046 30.0443V28.5237C42.0519 24.6465 42.046 24.4227 41.9332 24.0475C41.5058 22.6652 40.2947 21.8884 39.0184 22.1649ZM40.0573 23.6394C40.3007 23.7513 40.556 24.0475 40.6866 24.3635C40.7756 24.5741 40.7993 24.7913 40.7993 25.4628V26.3053H39.523H38.2467V25.6142C38.2467 24.607 38.3179 24.3108 38.6622 23.929C39.06 23.4946 39.523 23.3958 40.0573 23.6394Z" fill="#BEBEC3"/>
<path d="M43.8202 22.1502C43.7481 22.1831 43.634 22.295 43.5619 22.3938C43.4357 22.5715 43.4357 22.5913 43.4357 26.3112V30.0442L43.5919 30.2483C43.7842 30.4985 44.0726 30.5709 44.331 30.426C44.6555 30.2351 44.6976 30.0574 44.6976 28.8064V27.6872H45.5388C46.2299 27.6872 46.4342 27.6674 46.6986 27.5555C47.1372 27.3777 47.4797 27.0354 47.684 26.5811C47.8523 26.2058 47.8523 26.1992 47.8523 24.8891C47.8523 23.6381 47.8463 23.5591 47.7081 23.2563C47.5218 22.8415 47.2093 22.5057 46.8007 22.295C46.4822 22.1304 46.4281 22.1238 45.2083 22.1107C44.5173 22.1041 43.8863 22.1238 43.8202 22.1502ZM46.1517 23.5394C46.5664 23.6645 46.6204 23.8225 46.6204 24.8693C46.6204 26.2387 46.5664 26.3046 45.4186 26.3046H44.6976V24.8891V23.4735H45.3165C45.653 23.4735 46.0316 23.5064 46.1517 23.5394Z" fill="#BEBEC3"/>
<path d="M48.9347 22.2207C48.5457 22.4497 48.4978 23.0123 48.8329 23.3198C48.9885 23.4637 49.0723 23.4899 49.4313 23.4899H49.8442V26.3031V29.1163H49.4313C49.0723 29.1163 48.9885 29.1425 48.8329 29.2864C48.4918 29.6004 48.5517 30.1696 48.9466 30.3921C49.2039 30.536 51.801 30.536 52.0584 30.3921C52.4533 30.1696 52.5131 29.6004 52.1721 29.2864C52.0165 29.1425 51.9327 29.1163 51.5736 29.1163H51.1607V26.3031V23.4899H51.5736C51.9327 23.4899 52.0165 23.4637 52.1721 23.3198C52.5131 23.0058 52.4533 22.4366 52.0584 22.2141C51.807 22.0702 49.174 22.0767 48.9347 22.2207Z" fill="#BEBEC3"/>
<path d="M35.5 14.3423C35.5 13.9281 35.8358 13.5923 36.25 13.5923H37.25C37.6642 13.5923 38 13.9281 38 14.3423C38 14.7565 37.6642 15.0923 37.25 15.0923H36.25C35.8358 15.0923 35.5 14.7565 35.5 14.3423Z" fill="#BEBEC3"/>
<path d="M40 14.3423C40 13.9281 40.3358 13.5923 40.75 13.5923H41.75C42.1642 13.5923 42.5 13.9281 42.5 14.3423C42.5 14.7565 42.1642 15.0923 41.75 15.0923H40.75C40.3358 15.0923 40 14.7565 40 14.3423Z" fill="#BEBEC3"/>
<path d="M51.5 14.3423C51.5 13.9281 51.8358 13.5923 52.25 13.5923H53.25C53.6642 13.5923 54 13.9281 54 14.3423C54 14.7565 53.6642 15.0923 53.25 15.0923H52.25C51.8358 15.0923 51.5 14.7565 51.5 14.3423Z" fill="#BEBEC3"/>
<path d="M36.9636 53H35.8556L39.0602 44.2727H40.1511L43.3556 53H42.2477L39.6397 45.6534H39.5716L36.9636 53ZM37.3727 49.5909H41.8386V50.5284H37.3727V49.5909ZM44.715 53V44.2727H47.6639C48.3485 44.2727 48.9082 44.3963 49.3429 44.6435C49.7804 44.8878 50.1042 45.2188 50.3145 45.6364C50.5247 46.054 50.6298 46.5199 50.6298 47.0341C50.6298 47.5483 50.5247 48.0156 50.3145 48.4361C50.1071 48.8565 49.786 49.1918 49.3514 49.4418C48.9167 49.6889 48.3599 49.8125 47.6809 49.8125H45.5673V48.875H47.6468C48.1156 48.875 48.492 48.794 48.7761 48.6321C49.0602 48.4702 49.2662 48.2514 49.394 47.9759C49.5247 47.6974 49.59 47.3835 49.59 47.0341C49.59 46.6847 49.5247 46.3722 49.394 46.0966C49.2662 45.821 49.0588 45.6051 48.7718 45.4489C48.4849 45.2898 48.1042 45.2102 47.6298 45.2102H45.7718V53H44.715ZM53.389 44.2727V53H52.3322V44.2727H53.389Z" fill="white"/>
</svg>
