<svg width="26" height="27" viewBox="0 0 26 27" fill="none" xmlns="http://www.w3.org/2000/svg">
<rect x="0.75" y="1.75" width="24.5" height="24.5" rx="4.25" stroke="#BEBEC3" stroke-width="1.5"/>
<path d="M3.64325 8.26874C3.45603 8.60372 3.45157 9.02645 3.63433 9.39334C3.71462 9.55681 3.8577 9.65654 4.01192 9.65654H21.9881C22.1423 9.65654 22.2854 9.55681 22.3657 9.39334C22.5484 9.02645 22.544 8.60372 22.3568 8.26874C22.2702 8.11386 22.128 8.02148 21.9762 8.02148H4.02384C3.87201 8.02148 3.72981 8.11386 3.64325 8.26874Z" fill="#BEBEC3"/>
<path d="M7.0184 14.1649C6.06857 14.3689 5.2434 15.3037 5.05936 16.3964C5.02375 16.5939 5 17.8709 5 19.3388C5 22.1957 5 22.2154 5.36213 22.4261C5.59958 22.5577 5.88454 22.505 6.0745 22.2812C6.21104 22.1167 6.21698 22.0706 6.24666 20.9186L6.27634 19.7206L7.54081 19.7009L8.79935 19.6877V20.8067C8.79935 22.0574 8.8409 22.2352 9.16147 22.4261C9.41674 22.5709 9.70169 22.4985 9.89166 22.2483L10.046 22.0443V20.5237C10.0519 16.6465 10.046 16.4227 9.93321 16.0475C9.50579 14.6652 8.29475 13.8884 7.0184 14.1649ZM8.05729 15.6394C8.30068 15.7513 8.55595 16.0475 8.68655 16.3635C8.7756 16.5741 8.79935 16.7913 8.79935 17.4628V18.3053H7.523H6.24666V17.6142C6.24666 16.607 6.3179 16.3108 6.66221 15.929C7.05996 15.4946 7.523 15.3958 8.05729 15.6394Z" fill="#BEBEC3"/>
<path d="M11.8202 14.1502C11.7481 14.1831 11.634 14.295 11.5619 14.3938C11.4357 14.5715 11.4357 14.5913 11.4357 18.3112V22.0442L11.5919 22.2483C11.7842 22.4985 12.0726 22.5709 12.331 22.426C12.6555 22.2351 12.6976 22.0574 12.6976 20.8064V19.6872H13.5388C14.2299 19.6872 14.4342 19.6674 14.6986 19.5555C15.1372 19.3777 15.4797 19.0354 15.684 18.5811C15.8523 18.2058 15.8523 18.1992 15.8523 16.8891C15.8523 15.6381 15.8463 15.5591 15.7081 15.2563C15.5218 14.8415 15.2093 14.5057 14.8007 14.295C14.4822 14.1304 14.4281 14.1238 13.2083 14.1107C12.5173 14.1041 11.8863 14.1238 11.8202 14.1502ZM14.1517 15.5394C14.5664 15.6645 14.6204 15.8225 14.6204 16.8693C14.6204 18.2387 14.5664 18.3046 13.4186 18.3046H12.6976V16.8891V15.4735H13.3165C13.653 15.4735 14.0316 15.5064 14.1517 15.5394Z" fill="#BEBEC3"/>
<path d="M16.9347 14.2207C16.5457 14.4497 16.4978 15.0123 16.8329 15.3198C16.9885 15.4637 17.0723 15.4899 17.4313 15.4899H17.8442V18.3031V21.1163H17.4313C17.0723 21.1163 16.9885 21.1425 16.8329 21.2864C16.4918 21.6004 16.5517 22.1696 16.9466 22.3921C17.2039 22.536 19.801 22.536 20.0584 22.3921C20.4533 22.1696 20.5131 21.6004 20.1721 21.2864C20.0165 21.1425 19.9327 21.1163 19.5736 21.1163H19.1607V18.3031V15.4899H19.5736C19.9327 15.4899 20.0165 15.4637 20.1721 15.3198C20.5131 15.0058 20.4533 14.4366 20.0584 14.2141C19.807 14.0702 17.174 14.0767 16.9347 14.2207Z" fill="#BEBEC3"/>
<path d="M3.5 6.34229C3.5 5.92807 3.83579 5.59229 4.25 5.59229H5.25C5.66421 5.59229 6 5.92807 6 6.34229C6 6.7565 5.66421 7.09229 5.25 7.09229H4.25C3.83579 7.09229 3.5 6.7565 3.5 6.34229Z" fill="#BEBEC3"/>
<path d="M8 6.34229C8 5.92807 8.33579 5.59229 8.75 5.59229H9.75C10.1642 5.59229 10.5 5.92807 10.5 6.34229C10.5 6.7565 10.1642 7.09229 9.75 7.09229H8.75C8.33579 7.09229 8 6.7565 8 6.34229Z" fill="#BEBEC3"/>
<path d="M19.5 6.34229C19.5 5.92807 19.8358 5.59229 20.25 5.59229H21.25C21.6642 5.59229 22 5.92807 22 6.34229C22 6.7565 21.6642 7.09229 21.25 7.09229H20.25C19.8358 7.09229 19.5 6.7565 19.5 6.34229Z" fill="#BEBEC3"/>
</svg>
