<svg width="26" height="26" viewBox="0 0 26 26" fill="none" xmlns="http://www.w3.org/2000/svg">
<path d="M16.2727 9.72727L19.5455 13L16.2727 16.2727M9.72727 16.2727L6.45455 13L9.72727 9.72727M4.27273 25H21.7273C22.5953 25 23.4277 24.6552 24.0414 24.0414C24.6552 23.4277 25 22.5953 25 21.7273V4.27273C25 3.40475 24.6552 2.57232 24.0414 1.95856C23.4277 1.3448 22.5953 1 21.7273 1H4.27273C3.40475 1 2.57232 1.3448 1.95856 1.95856C1.3448 2.57232 1 3.40475 1 4.27273V21.7273C1 22.5953 1.3448 23.4277 1.95856 24.0414C2.57232 24.6552 3.40475 25 4.27273 25Z" stroke="#BEBEC3" stroke-width="2" stroke-linecap="round" stroke-linejoin="round"/>
</svg>
