<svg width="90" height="66" viewBox="0 0 90 66" fill="none" xmlns="http://www.w3.org/2000/svg">
<g clip-path="url(#clip0_486_2368)">
<path d="M48.2727 17.7273L51.5455 21L48.2727 24.2727M41.7273 24.2727L38.4545 21L41.7273 17.7273M36.2727 33H53.7273C54.5953 33 55.4277 32.6552 56.0414 32.0414C56.6552 31.4277 57 30.5953 57 29.7273V12.2727C57 11.4047 56.6552 10.5723 56.0414 9.95856C55.4277 9.3448 54.5953 9 53.7273 9H36.2727C35.4047 9 34.5723 9.3448 33.9586 9.95856C33.3448 10.5723 33 11.4047 33 12.2727V29.7273C33 30.5953 33.3448 31.4277 33.9586 32.0414C34.5723 32.6552 35.4047 33 36.2727 33Z" stroke="#BEBEC3" stroke-width="2" stroke-linecap="round" stroke-linejoin="round"/>
</g>
<path d="M25.5698 46.4545C25.5186 46.0227 25.3113 45.6875 24.9476 45.4489C24.584 45.2102 24.138 45.0909 23.6096 45.0909C23.2232 45.0909 22.8851 45.1534 22.5953 45.2784C22.3084 45.4034 22.084 45.5753 21.9221 45.794C21.763 46.0128 21.6834 46.2614 21.6834 46.5398C21.6834 46.7727 21.7388 46.973 21.8496 47.1406C21.9632 47.3054 22.1081 47.4432 22.2843 47.554C22.4604 47.6619 22.6451 47.7514 22.8382 47.8224C23.0314 47.8906 23.209 47.946 23.3709 47.9886L24.2573 48.2273C24.4846 48.2869 24.7374 48.3693 25.0158 48.4744C25.2971 48.5795 25.5655 48.723 25.8212 48.9048C26.0797 49.0838 26.2928 49.3139 26.4604 49.5952C26.628 49.8764 26.7118 50.2216 26.7118 50.6307C26.7118 51.1023 26.5882 51.5284 26.3411 51.9091C26.0968 52.2898 25.7388 52.5923 25.2672 52.8168C24.7985 53.0412 24.2289 53.1534 23.5584 53.1534C22.9334 53.1534 22.3922 53.0526 21.9348 52.8509C21.4803 52.6491 21.1223 52.3679 20.861 52.0071C20.6025 51.6463 20.4561 51.2273 20.4221 50.75H21.513C21.5414 51.0795 21.6522 51.3523 21.8453 51.5682C22.0414 51.7812 22.2885 51.9403 22.5868 52.0455C22.888 52.1477 23.2118 52.1989 23.5584 52.1989C23.9618 52.1989 24.324 52.1335 24.6451 52.0028C24.9661 51.8693 25.2203 51.6847 25.4078 51.4489C25.5953 51.2102 25.6891 50.9318 25.6891 50.6136C25.6891 50.3239 25.6081 50.0881 25.4462 49.9062C25.2843 49.7244 25.0712 49.5767 24.807 49.4631C24.5428 49.3494 24.2573 49.25 23.9505 49.1648L22.8766 48.858C22.1948 48.6619 21.655 48.3821 21.2573 48.0185C20.8596 47.6548 20.6607 47.179 20.6607 46.5909C20.6607 46.1023 20.7928 45.6761 21.057 45.3125C21.324 44.946 21.682 44.6619 22.1309 44.4602C22.5826 44.2557 23.0868 44.1534 23.6436 44.1534C24.2061 44.1534 24.7061 44.2543 25.1436 44.456C25.5811 44.6548 25.9277 44.9276 26.1834 45.2741C26.4419 45.6207 26.5783 46.0142 26.5925 46.4545H25.5698ZM30.9721 53.1364C30.3585 53.1364 29.8301 52.9915 29.3869 52.7017C28.9437 52.4119 28.6028 52.0128 28.3642 51.5043C28.1255 50.9957 28.0062 50.4148 28.0062 49.7614C28.0062 49.0966 28.1284 48.5099 28.3727 48.0014C28.6199 47.4901 28.9636 47.0909 29.4039 46.804C29.8471 46.5142 30.3642 46.3693 30.9551 46.3693C31.4153 46.3693 31.8301 46.4545 32.1994 46.625C32.5687 46.7955 32.8713 47.0341 33.1071 47.3409C33.3429 47.6477 33.4892 48.0057 33.546 48.4148H32.5403C32.4636 48.1165 32.2931 47.8523 32.0289 47.6222C31.7676 47.3892 31.4153 47.2727 30.9721 47.2727C30.5801 47.2727 30.2363 47.375 29.9409 47.5795C29.6483 47.7812 29.4196 48.0668 29.2548 48.4361C29.0929 48.8026 29.0119 49.233 29.0119 49.7273C29.0119 50.233 29.0914 50.6733 29.2505 51.0483C29.4125 51.4233 29.6397 51.7145 29.9324 51.9219C30.2278 52.1293 30.5744 52.233 30.9721 52.233C31.2335 52.233 31.4707 52.1875 31.6838 52.0966C31.8968 52.0057 32.0772 51.875 32.225 51.7045C32.3727 51.5341 32.4778 51.3295 32.5403 51.0909H33.546C33.4892 51.4773 33.3485 51.8253 33.1241 52.1349C32.9025 52.4418 32.6085 52.6861 32.242 52.8679C31.8784 53.0469 31.4551 53.1364 30.9721 53.1364ZM35.0162 53V46.4545H35.9877V47.4432H36.0559C36.1752 47.1193 36.3912 46.8565 36.7037 46.6548C37.0162 46.4531 37.3684 46.3523 37.7605 46.3523C37.8343 46.3523 37.9267 46.3537 38.0375 46.3565C38.1483 46.3594 38.2321 46.3636 38.2889 46.3693V47.392C38.2548 47.3835 38.1767 47.3707 38.0545 47.3537C37.9352 47.3338 37.8088 47.3239 37.6752 47.3239C37.3571 47.3239 37.073 47.3906 36.823 47.5241C36.5758 47.6548 36.3798 47.8366 36.2349 48.0696C36.0929 48.2997 36.0218 48.5625 36.0218 48.858V53H35.0162ZM39.481 53V46.4545H40.4867V53H39.481ZM39.9924 45.3636C39.7963 45.3636 39.6273 45.2969 39.4853 45.1634C39.3461 45.0298 39.2765 44.8693 39.2765 44.6818C39.2765 44.4943 39.3461 44.3338 39.4853 44.2003C39.6273 44.0668 39.7963 44 39.9924 44C40.1884 44 40.356 44.0668 40.4952 44.2003C40.6373 44.3338 40.7083 44.4943 40.7083 44.6818C40.7083 44.8693 40.6373 45.0298 40.4952 45.1634C40.356 45.2969 40.1884 45.3636 39.9924 45.3636ZM42.3287 55.4545V46.4545H43.3002V47.4943H43.4196C43.4934 47.3807 43.5957 47.2358 43.7264 47.0597C43.8599 46.8807 44.0502 46.7216 44.2974 46.5824C44.5474 46.4403 44.8855 46.3693 45.3116 46.3693C45.8627 46.3693 46.3485 46.5071 46.769 46.7827C47.1895 47.0582 47.5176 47.4489 47.7534 47.9545C47.9892 48.4602 48.1071 49.0568 48.1071 49.7443C48.1071 50.4375 47.9892 51.0384 47.7534 51.5469C47.5176 52.0526 47.1909 52.4446 46.7733 52.723C46.3556 52.9986 45.8741 53.1364 45.3287 53.1364C44.9082 53.1364 44.5716 53.0668 44.3187 52.9276C44.0659 52.7855 43.8713 52.625 43.7349 52.446C43.5985 52.2642 43.4934 52.1136 43.4196 51.9943H43.3343V55.4545H42.3287ZM43.3173 49.7273C43.3173 50.2216 43.3897 50.6577 43.5346 51.0355C43.6795 51.4105 43.8912 51.7045 44.1696 51.9176C44.448 52.1278 44.7889 52.233 45.1923 52.233C45.6127 52.233 45.9636 52.1222 46.2449 51.9006C46.5289 51.6761 46.742 51.375 46.8841 50.9972C47.0289 50.6165 47.1014 50.1932 47.1014 49.7273C47.1014 49.267 47.0304 48.8523 46.8883 48.483C46.7491 48.1108 46.5375 47.8168 46.2534 47.6009C45.9721 47.3821 45.6184 47.2727 45.1923 47.2727C44.7832 47.2727 44.4395 47.3764 44.161 47.5838C43.8826 47.7884 43.6724 48.0753 43.5304 48.4446C43.3883 48.8111 43.3173 49.2386 43.3173 49.7273ZM52.4877 46.4545V47.3068H49.0957V46.4545H52.4877ZM50.0843 44.8864H51.09V51.125C51.09 51.4091 51.1312 51.6222 51.2136 51.7642C51.2988 51.9034 51.4068 51.9972 51.5375 52.0455C51.671 52.0909 51.8116 52.1136 51.9593 52.1136C52.0701 52.1136 52.161 52.108 52.2321 52.0966C52.3031 52.0824 52.3599 52.071 52.4025 52.0625L52.6071 52.9659C52.5389 52.9915 52.4437 53.017 52.3216 53.0426C52.1994 53.071 52.0446 53.0852 51.8571 53.0852C51.573 53.0852 51.2946 53.0241 51.0218 52.902C50.752 52.7798 50.5275 52.5938 50.3485 52.3438C50.1724 52.0938 50.0843 51.7784 50.0843 51.3977V44.8864ZM54.0005 53V46.4545H55.0062V53H54.0005ZM54.5119 45.3636C54.3159 45.3636 54.1468 45.2969 54.0048 45.1634C53.8656 45.0298 53.796 44.8693 53.796 44.6818C53.796 44.4943 53.8656 44.3338 54.0048 44.2003C54.1468 44.0668 54.3159 44 54.5119 44C54.7079 44 54.8755 44.0668 55.0147 44.2003C55.1568 44.3338 55.2278 44.4943 55.2278 44.6818C55.2278 44.8693 55.1568 45.0298 55.0147 45.1634C54.8755 45.2969 54.7079 45.3636 54.5119 45.3636ZM57.8539 49.0625V53H56.8482V46.4545H57.8198V47.4773H57.905C58.0584 47.1449 58.2914 46.8778 58.6039 46.6761C58.9164 46.4716 59.3198 46.3693 59.8141 46.3693C60.2573 46.3693 60.6451 46.4602 60.9775 46.642C61.3098 46.821 61.5684 47.0938 61.753 47.4602C61.9377 47.8239 62.03 48.2841 62.03 48.8409V53H61.0243V48.9091C61.0243 48.3949 60.8908 47.9943 60.6238 47.7074C60.3567 47.4176 59.9902 47.2727 59.5243 47.2727C59.2033 47.2727 58.9164 47.3423 58.6635 47.4815C58.4135 47.6207 58.2161 47.8239 58.0712 48.0909C57.9263 48.358 57.8539 48.6818 57.8539 49.0625ZM66.5098 55.5909C66.024 55.5909 65.6064 55.5284 65.2569 55.4034C64.9075 55.2812 64.6163 55.1193 64.3833 54.9176C64.1532 54.7188 63.97 54.5057 63.8336 54.2784L64.6348 53.7159C64.7257 53.8352 64.8407 53.9716 64.9799 54.125C65.1191 54.2812 65.3095 54.4162 65.551 54.5298C65.7953 54.6463 66.1149 54.7045 66.5098 54.7045C67.0382 54.7045 67.4743 54.5767 67.818 54.321C68.1618 54.0653 68.3336 53.6648 68.3336 53.1193V51.7898H68.2484C68.1745 51.9091 68.0694 52.0568 67.9331 52.233C67.7995 52.4062 67.6064 52.5611 67.3535 52.6974C67.1035 52.831 66.7654 52.8977 66.3393 52.8977C65.8109 52.8977 65.3365 52.7727 64.916 52.5227C64.4984 52.2727 64.1674 51.9091 63.9231 51.4318C63.6816 50.9545 63.5609 50.375 63.5609 49.6932C63.5609 49.0227 63.6788 48.4389 63.9146 47.9418C64.1504 47.4418 64.4785 47.0554 64.899 46.7827C65.3194 46.5071 65.8052 46.3693 66.3564 46.3693C66.7825 46.3693 67.1206 46.4403 67.3706 46.5824C67.6234 46.7216 67.8166 46.8807 67.9501 47.0597C68.0865 47.2358 68.1916 47.3807 68.2654 47.4943H68.3677V46.4545H69.3393V53.1875C69.3393 53.75 69.2115 54.2074 68.9558 54.5597C68.7029 54.9148 68.362 55.1747 67.9331 55.3395C67.5069 55.5071 67.0325 55.5909 66.5098 55.5909ZM66.4757 51.9943C66.8791 51.9943 67.22 51.902 67.4984 51.7173C67.7768 51.5327 67.9885 51.267 68.1333 50.9205C68.2782 50.5739 68.3507 50.1591 68.3507 49.6761C68.3507 49.2045 68.2797 48.7884 68.1376 48.4276C67.9956 48.0668 67.7853 47.7841 67.5069 47.5795C67.2285 47.375 66.8848 47.2727 66.4757 47.2727C66.0495 47.2727 65.6944 47.3807 65.4103 47.5966C65.1291 47.8125 64.9174 48.1023 64.7754 48.4659C64.6362 48.8295 64.5666 49.233 64.5666 49.6761C64.5666 50.1307 64.6376 50.5327 64.7797 50.8821C64.9245 51.2287 65.1376 51.5014 65.4189 51.7003C65.7029 51.8963 66.0552 51.9943 66.4757 51.9943Z" fill="#BEBEC3"/>
<defs>
<clipPath id="clip0_486_2368">
<rect width="26" height="26" fill="white" transform="translate(32 8)"/>
</clipPath>
</defs>
</svg>
