<svg width="26" height="26" viewBox="0 0 26 26" fill="none" xmlns="http://www.w3.org/2000/svg">
<g clip-path="url(#clip0_486_2376)">
<path d="M5.70388 7.82331C4.80924 9.41332 4.39211 11.3822 4.52384 13.3697C4.63361 15.0467 4.9245 16.0156 5.82463 17.7485L6.19786 18.4627L6.83453 18.4814L7.4767 18.5L7.14738 17.7174C6.39545 15.9224 6.21432 15.2082 6.10455 13.5561C5.97831 11.6306 6.24176 9.86051 6.90588 8.18976C7.0431 7.84194 7.15287 7.55002 7.15287 7.53139C7.15287 7.51276 6.86746 7.50034 6.52168 7.50034H5.89049L5.70388 7.82331Z" fill="#BEBEC3"/>
<path d="M18.8435 7.53077C18.8435 7.5494 18.9039 7.70467 18.9807 7.87237C19.1838 8.32577 19.4418 9.08351 19.59 9.6425C19.8424 10.6238 19.9083 11.2822 19.9083 12.7169C19.9083 14.7976 19.7107 15.7231 18.849 17.7478C18.6953 18.1081 18.5691 18.4186 18.5691 18.4435C18.5691 18.4745 18.849 18.4932 19.1893 18.4932H19.804L20.1992 17.7292C21.2201 15.7603 21.5 14.6672 21.5 12.6548C21.5 11.4499 21.4286 10.8971 21.1378 9.85989C20.9237 9.09594 20.77 8.71085 20.4187 8.04007L20.1388 7.49971H19.4912C19.1344 7.49971 18.8435 7.51213 18.8435 7.53077Z" fill="#BEBEC3"/>
<path d="M15.8248 8.97247C15.4625 9.12154 14.9411 9.74885 14.3703 10.7426C14.0959 11.2146 13.8599 11.5935 13.8434 11.5997C13.8269 11.5997 13.7775 11.4382 13.7391 11.2395C13.5745 10.3824 13.4153 9.94139 13.1518 9.61221C12.839 9.22091 12.592 9.07185 12.109 8.99111C11.5327 8.90415 10.671 9.07806 9.86966 9.45072C9.54583 9.59978 9.54034 9.60599 9.47448 9.92897C9.44155 10.1153 9.41411 10.2706 9.42508 10.2768C9.43057 10.283 9.55681 10.2457 9.705 10.196C10.0727 10.0718 10.6106 10.0718 10.8521 10.2022C11.2199 10.401 11.368 10.755 11.8126 12.5748L12.0761 13.6431L11.7303 14.1338C11.5437 14.4071 11.3626 14.6493 11.3296 14.668C11.2967 14.6928 11.0826 14.6555 10.8576 14.581C10.3307 14.4133 9.76538 14.4071 9.44704 14.5686C8.35481 15.1151 8.47556 16.9909 9.6117 17.1151C10.3746 17.1958 10.8905 16.7052 11.9004 14.9226L12.2188 14.3636L12.3889 15.1089C12.4822 15.5189 12.6194 15.9847 12.6853 16.1462C13.1244 17.1523 14.277 17.4132 15.7699 16.8418C16.0882 16.7176 16.3846 16.5934 16.434 16.5623C16.5163 16.5126 16.692 15.9101 16.6371 15.8543C16.6261 15.8418 16.4834 15.8729 16.3242 15.9288C16.1376 15.9909 15.8906 16.0157 15.6272 15.9971C15.2704 15.9785 15.2046 15.9536 15.0564 15.7921C14.9576 15.6866 14.8368 15.5064 14.7819 15.3822C14.6612 15.1214 14.1617 13.2829 14.0629 12.7425L13.9971 12.3637L14.2441 11.9972C14.3813 11.7985 14.5679 11.55 14.6557 11.4569L14.8204 11.283L15.2265 11.4134C16.22 11.7239 16.9499 11.4693 17.2573 10.6991C17.3726 10.4196 17.3945 9.84201 17.3012 9.56873C17.1091 8.98489 16.456 8.72403 15.8248 8.97247Z" fill="#BEBEC3"/>
<rect x="0.75" y="0.75" width="24.5" height="24.5" rx="4.25" stroke="#BEBEC3" stroke-width="1.5"/>
</g>
<defs>
<clipPath id="clip0_486_2376">
<rect width="26" height="26" fill="white"/>
</clipPath>
</defs>
</svg>
