<svg width="90" height="66" viewBox="0 0 90 66" fill="none" xmlns="http://www.w3.org/2000/svg">
<g clip-path="url(#clip0_486_2375)">
<path d="M37.7039 15.8233C36.8092 17.4133 36.3921 19.3822 36.5238 21.3697C36.6336 23.0467 36.9245 24.0156 37.8246 25.7485L38.1979 26.4627L38.8345 26.4814L39.4767 26.5L39.1474 25.7174C38.3954 23.9224 38.2143 23.2082 38.1046 21.5561C37.9783 19.6306 38.2418 17.8605 38.9059 16.1898C39.0431 15.8419 39.1529 15.55 39.1529 15.5314C39.1529 15.5128 38.8675 15.5003 38.5217 15.5003H37.8905L37.7039 15.8233Z" fill="#BEBEC3"/>
<path d="M50.8435 15.5308C50.8435 15.5494 50.9039 15.7047 50.9807 15.8724C51.1838 16.3258 51.4418 17.0835 51.59 17.6425C51.8424 18.6238 51.9083 19.2822 51.9083 20.7169C51.9083 22.7976 51.7107 23.7231 50.849 25.7478C50.6953 26.1081 50.5691 26.4186 50.5691 26.4435C50.5691 26.4745 50.849 26.4932 51.1893 26.4932H51.804L52.1992 25.7292C53.2201 23.7603 53.5 22.6672 53.5 20.6548C53.5 19.4499 53.4286 18.8971 53.1378 17.8599C52.9237 17.0959 52.77 16.7109 52.4187 16.0401L52.1388 15.4997H51.4912C51.1344 15.4997 50.8435 15.5121 50.8435 15.5308Z" fill="#BEBEC3"/>
<path d="M47.8248 16.9725C47.4625 17.1215 46.9411 17.7488 46.3703 18.7426C46.0959 19.2146 45.8599 19.5935 45.8434 19.5997C45.8269 19.5997 45.7775 19.4382 45.7391 19.2395C45.5745 18.3824 45.4153 17.9414 45.1518 17.6122C44.839 17.2209 44.592 17.0718 44.109 16.9911C43.5327 16.9042 42.671 17.0781 41.8697 17.4507C41.5458 17.5998 41.5403 17.606 41.4745 17.929C41.4415 18.1153 41.4141 18.2706 41.4251 18.2768C41.4306 18.283 41.5568 18.2457 41.705 18.196C42.0727 18.0718 42.6106 18.0718 42.8521 18.2022C43.2199 18.401 43.368 18.755 43.8126 20.5748L44.0761 21.6431L43.7303 22.1338C43.5437 22.4071 43.3626 22.6493 43.3296 22.668C43.2967 22.6928 43.0826 22.6555 42.8576 22.581C42.3307 22.4133 41.7654 22.4071 41.447 22.5686C40.3548 23.1151 40.4756 24.9909 41.6117 25.1151C42.3746 25.1958 42.8905 24.7052 43.9004 22.9226L44.2188 22.3636L44.3889 23.1089C44.4822 23.5189 44.6194 23.9847 44.6853 24.1462C45.1244 25.1523 46.277 25.4132 47.7699 24.8418C48.0882 24.7176 48.3846 24.5934 48.434 24.5623C48.5163 24.5126 48.692 23.9101 48.6371 23.8543C48.6261 23.8418 48.4834 23.8729 48.3242 23.9288C48.1376 23.9909 47.8906 24.0157 47.6272 23.9971C47.2704 23.9785 47.2046 23.9536 47.0564 23.7921C46.9576 23.6866 46.8368 23.5064 46.7819 23.3822C46.6612 23.1214 46.1617 21.2829 46.0629 20.7425L45.9971 20.3637L46.2441 19.9972C46.3813 19.7985 46.5679 19.55 46.6557 19.4569L46.8204 19.283L47.2265 19.4134C48.22 19.7239 48.9499 19.4693 49.2573 18.6991C49.3726 18.4196 49.3945 17.842 49.3012 17.5687C49.1091 16.9849 48.456 16.724 47.8248 16.9725Z" fill="#BEBEC3"/>
<rect x="32.75" y="8.75" width="24.5" height="24.5" rx="4.25" stroke="#BEBEC3" stroke-width="1.5"/>
</g>
<path d="M20.4695 44.2727L23.0604 51.6193H23.1626L25.7536 44.2727H26.8615L23.657 53H22.5661L19.3615 44.2727H20.4695ZM29.4013 53.1534C28.9865 53.1534 28.6101 53.0753 28.272 52.919C27.9339 52.7599 27.6655 52.5312 27.4666 52.233C27.2678 51.9318 27.1683 51.5682 27.1683 51.142C27.1683 50.767 27.2422 50.4631 27.3899 50.2301C27.5376 49.9943 27.7351 49.8097 27.9822 49.6761C28.2294 49.5426 28.5021 49.4432 28.8004 49.3778C29.1016 49.3097 29.4041 49.2557 29.7081 49.2159C30.1058 49.1648 30.4283 49.1264 30.6754 49.1009C30.9254 49.0724 31.1072 49.0256 31.2209 48.9602C31.3374 48.8949 31.3956 48.7812 31.3956 48.6193V48.5852C31.3956 48.1648 31.2805 47.8381 31.0504 47.6051C30.8232 47.3722 30.478 47.2557 30.0149 47.2557C29.5348 47.2557 29.1584 47.3608 28.8857 47.571C28.6129 47.7812 28.4212 48.0057 28.3104 48.2443L27.3558 47.9034C27.5263 47.5057 27.7536 47.196 28.0376 46.9744C28.3246 46.75 28.6371 46.5937 28.9751 46.5057C29.3161 46.4148 29.6513 46.3693 29.9808 46.3693C30.1911 46.3693 30.4325 46.3949 30.7053 46.446C30.9808 46.4943 31.2464 46.5952 31.5021 46.7486C31.7607 46.902 31.9751 47.1335 32.1456 47.4432C32.3161 47.7528 32.4013 48.1676 32.4013 48.6875V53H31.3956V52.1136H31.3445C31.2763 52.2557 31.1626 52.4077 31.0036 52.5696C30.8445 52.7315 30.6328 52.8693 30.3686 52.983C30.1044 53.0966 29.782 53.1534 29.4013 53.1534ZM29.5547 52.25C29.9524 52.25 30.2876 52.1719 30.5604 52.0156C30.8359 51.8594 31.0433 51.6577 31.1825 51.4105C31.3246 51.1634 31.3956 50.9034 31.3956 50.6307V49.7102C31.353 49.7614 31.2592 49.8082 31.1143 49.8509C30.9723 49.8906 30.8075 49.9261 30.62 49.9574C30.4354 49.9858 30.255 50.0114 30.0788 50.0341C29.9055 50.054 29.7649 50.071 29.657 50.0852C29.3956 50.1193 29.1513 50.1747 28.924 50.2514C28.6996 50.3253 28.5178 50.4375 28.3786 50.5881C28.2422 50.7358 28.174 50.9375 28.174 51.1932C28.174 51.5426 28.3033 51.8068 28.5618 51.9858C28.8232 52.1619 29.1541 52.25 29.5547 52.25ZM34.2369 53V46.4545H35.2085V47.4432H35.2766C35.396 47.1193 35.6119 46.8565 35.9244 46.6548C36.2369 46.4531 36.5891 46.3523 36.9812 46.3523C37.055 46.3523 37.1474 46.3537 37.2582 46.3565C37.369 46.3594 37.4528 46.3636 37.5096 46.3693V47.392C37.4755 47.3835 37.3974 47.3707 37.2752 47.3537C37.1559 47.3338 37.0295 47.3239 36.896 47.3239C36.5778 47.3239 36.2937 47.3906 36.0437 47.5241C35.7965 47.6548 35.6005 47.8366 35.4556 48.0696C35.3136 48.2997 35.2425 48.5625 35.2425 48.858V53H34.2369ZM38.7017 53V46.4545H39.7074V53H38.7017ZM39.2131 45.3636C39.017 45.3636 38.848 45.2969 38.706 45.1634C38.5668 45.0298 38.4972 44.8693 38.4972 44.6818C38.4972 44.4943 38.5668 44.3338 38.706 44.2003C38.848 44.0668 39.017 44 39.2131 44C39.4091 44 39.5767 44.0668 39.7159 44.2003C39.858 44.3338 39.929 44.4943 39.929 44.6818C39.929 44.8693 39.858 45.0298 39.7159 45.1634C39.5767 45.2969 39.4091 45.3636 39.2131 45.3636ZM43.4755 53.1534C43.0607 53.1534 42.6843 53.0753 42.3462 52.919C42.0082 52.7599 41.7397 52.5312 41.5408 52.233C41.342 51.9318 41.2425 51.5682 41.2425 51.142C41.2425 50.767 41.3164 50.4631 41.4641 50.2301C41.6119 49.9943 41.8093 49.8097 42.0565 49.6761C42.3036 49.5426 42.5763 49.4432 42.8746 49.3778C43.1758 49.3097 43.4783 49.2557 43.7823 49.2159C44.18 49.1648 44.5025 49.1264 44.7496 49.1009C44.9996 49.0724 45.1815 49.0256 45.2951 48.9602C45.4116 48.8949 45.4698 48.7812 45.4698 48.6193V48.5852C45.4698 48.1648 45.3548 47.8381 45.1246 47.6051C44.8974 47.3722 44.5522 47.2557 44.0891 47.2557C43.609 47.2557 43.2326 47.3608 42.9599 47.571C42.6871 47.7812 42.4954 48.0057 42.3846 48.2443L41.43 47.9034C41.6005 47.5057 41.8278 47.196 42.1119 46.9744C42.3988 46.75 42.7113 46.5937 43.0494 46.5057C43.3903 46.4148 43.7255 46.3693 44.055 46.3693C44.2653 46.3693 44.5067 46.3949 44.7795 46.446C45.055 46.4943 45.3207 46.5952 45.5763 46.7486C45.8349 46.902 46.0494 47.1335 46.2198 47.4432C46.3903 47.7528 46.4755 48.1676 46.4755 48.6875V53H45.4698V52.1136H45.4187C45.3505 52.2557 45.2369 52.4077 45.0778 52.5696C44.9187 52.7315 44.707 52.8693 44.4428 52.983C44.1786 53.0966 43.8562 53.1534 43.4755 53.1534ZM43.6289 52.25C44.0266 52.25 44.3619 52.1719 44.6346 52.0156C44.9102 51.8594 45.1175 51.6577 45.2567 51.4105C45.3988 51.1634 45.4698 50.9034 45.4698 50.6307V49.7102C45.4272 49.7614 45.3335 49.8082 45.1886 49.8509C45.0465 49.8906 44.8817 49.9261 44.6942 49.9574C44.5096 49.9858 44.3292 50.0114 44.1531 50.0341C43.9798 50.054 43.8391 50.071 43.7312 50.0852C43.4698 50.1193 43.2255 50.1747 42.9982 50.2514C42.7738 50.3253 42.592 50.4375 42.4528 50.5881C42.3164 50.7358 42.2482 50.9375 42.2482 51.1932C42.2482 51.5426 42.3775 51.8068 42.636 51.9858C42.8974 52.1619 43.2283 52.25 43.6289 52.25ZM48.4474 53V44.2727H49.4531V47.4943H49.5384C49.6122 47.3807 49.7145 47.2358 49.8452 47.0597C49.9787 46.8807 50.169 46.7216 50.4162 46.5824C50.6662 46.4403 51.0043 46.3693 51.4304 46.3693C51.9815 46.3693 52.4673 46.5071 52.8878 46.7827C53.3082 47.0582 53.6364 47.4489 53.8722 47.9545C54.108 48.4602 54.2259 49.0568 54.2259 49.7443C54.2259 50.4375 54.108 51.0384 53.8722 51.5469C53.6364 52.0526 53.3097 52.4446 52.892 52.723C52.4744 52.9986 51.9929 53.1364 51.4474 53.1364C51.027 53.1364 50.6903 53.0668 50.4375 52.9276C50.1847 52.7855 49.9901 52.625 49.8537 52.446C49.7173 52.2642 49.6122 52.1136 49.5384 51.9943H49.419V53H48.4474ZM49.4361 49.7273C49.4361 50.2216 49.5085 50.6577 49.6534 51.0355C49.7983 51.4105 50.0099 51.7045 50.2884 51.9176C50.5668 52.1278 50.9077 52.233 51.3111 52.233C51.7315 52.233 52.0824 52.1222 52.3636 51.9006C52.6477 51.6761 52.8608 51.375 53.0028 50.9972C53.1477 50.6165 53.2202 50.1932 53.2202 49.7273C53.2202 49.267 53.1491 48.8523 53.0071 48.483C52.8679 48.1108 52.6563 47.8168 52.3722 47.6009C52.0909 47.3821 51.7372 47.2727 51.3111 47.2727C50.902 47.2727 50.5582 47.3764 50.2798 47.5838C50.0014 47.7884 49.7912 48.0753 49.6491 48.4446C49.5071 48.8111 49.4361 49.2386 49.4361 49.7273ZM56.7699 44.2727V53H55.7642V44.2727H56.7699ZM61.3562 53.1364C60.7255 53.1364 60.1815 52.9972 59.7241 52.7188C59.2695 52.4375 58.9187 52.0455 58.6715 51.5426C58.4272 51.0369 58.305 50.4489 58.305 49.7784C58.305 49.108 58.4272 48.517 58.6715 48.0057C58.9187 47.4915 59.2624 47.0909 59.7028 46.804C60.146 46.5142 60.663 46.3693 61.2539 46.3693C61.5948 46.3693 61.9315 46.4261 62.2638 46.5398C62.5962 46.6534 62.8988 46.8381 63.1715 47.0938C63.4442 47.3466 63.6616 47.6818 63.8235 48.0994C63.9854 48.517 64.0664 49.0312 64.0664 49.642V50.0682H59.021V49.1989H63.0437C63.0437 48.8295 62.9698 48.5 62.8221 48.2102C62.6772 47.9205 62.4698 47.6918 62.1999 47.5241C61.9329 47.3565 61.6175 47.2727 61.2539 47.2727C60.8533 47.2727 60.5067 47.3722 60.2141 47.571C59.9244 47.767 59.7013 48.0227 59.5451 48.3381C59.3888 48.6534 59.3107 48.9915 59.3107 49.3523V49.9318C59.3107 50.4261 59.396 50.8452 59.5664 51.1889C59.7397 51.5298 59.9798 51.7898 60.2866 51.9688C60.5934 52.1449 60.9499 52.233 61.3562 52.233C61.6204 52.233 61.859 52.196 62.0721 52.1222C62.288 52.0455 62.4741 51.9318 62.6303 51.7812C62.7866 51.6278 62.9073 51.4375 62.9925 51.2102L63.9641 51.483C63.8619 51.8125 63.69 52.1023 63.4485 52.3523C63.207 52.5994 62.9087 52.7926 62.5536 52.9318C62.1985 53.0682 61.7994 53.1364 61.3562 53.1364ZM70.2326 47.9205L69.3292 48.1761C69.2724 48.0256 69.1886 47.8793 69.0778 47.7372C68.9698 47.5923 68.8221 47.473 68.6346 47.3793C68.4471 47.2855 68.207 47.2386 67.9144 47.2386C67.5138 47.2386 67.18 47.331 66.913 47.5156C66.6488 47.6974 66.5167 47.929 66.5167 48.2102C66.5167 48.4602 66.6076 48.6577 66.7894 48.8026C66.9712 48.9474 67.2553 49.0682 67.6417 49.1648L68.6133 49.4034C69.1985 49.5455 69.6346 49.7628 69.9215 50.0554C70.2085 50.3452 70.3519 50.7187 70.3519 51.1761C70.3519 51.5511 70.244 51.8864 70.0281 52.1818C69.815 52.4773 69.5167 52.7102 69.1332 52.8807C68.7496 53.0511 68.3036 53.1364 67.7951 53.1364C67.1275 53.1364 66.5749 52.9915 66.1374 52.7017C65.6999 52.4119 65.4229 51.9886 65.3065 51.4318L66.261 51.1932C66.3519 51.5455 66.5238 51.8097 66.7766 51.9858C67.0323 52.1619 67.3661 52.25 67.7781 52.25C68.2468 52.25 68.619 52.1506 68.8945 51.9517C69.1729 51.75 69.3121 51.5085 69.3121 51.2273C69.3121 51 69.2326 50.8097 69.0735 50.6562C68.9144 50.5 68.6701 50.3835 68.3406 50.3068L67.2496 50.0511C66.6502 49.9091 66.2099 49.6889 65.9286 49.3906C65.6502 49.0895 65.511 48.7131 65.511 48.2614C65.511 47.892 65.6147 47.5653 65.8221 47.2812C66.0323 46.9972 66.3178 46.7741 66.6786 46.6122C67.0423 46.4503 67.4542 46.3693 67.9144 46.3693C68.5621 46.3693 69.0707 46.5114 69.44 46.7955C69.8121 47.0795 70.0763 47.4545 70.2326 47.9205Z" fill="#BEBEC3"/>
<defs>
<clipPath id="clip0_486_2375">
<rect width="26" height="26" fill="white" transform="translate(32 8)"/>
</clipPath>
</defs>
</svg>
