<svg width="26" height="26" viewBox="0 0 26 26" fill="none" xmlns="http://www.w3.org/2000/svg">
<g clip-path="url(#clip0_95_175)">
<path fill-rule="evenodd" clip-rule="evenodd" d="M3.65625 0C2.68655 0 1.75657 0.385211 1.07089 1.07089C0.385211 1.75657 0 2.68655 0 3.65625V22.3438C0 23.3134 0.385211 24.2434 1.07089 24.9291C1.75657 25.6148 2.68655 26 3.65625 26H22.3438C23.3134 26 24.2434 25.6148 24.9291 24.9291C25.6148 24.2434 26 23.3134 26 22.3438V3.65625C26 2.68655 25.6148 1.75657 24.9291 1.07089C24.2434 0.385211 23.3134 0 22.3438 0H3.65625ZM10.205 10.205C10.4203 9.97396 10.5375 9.66839 10.5319 9.35265C10.5263 9.03691 10.3984 8.73566 10.1751 8.51236C9.95184 8.28907 9.65059 8.16116 9.33485 8.15559C9.01911 8.15002 8.71353 8.26722 8.4825 8.4825L4.82625 12.1388C4.59802 12.3673 4.46982 12.677 4.46982 13C4.46982 13.323 4.59802 13.6327 4.82625 13.8612L8.4825 17.5175C8.71353 17.7328 9.01911 17.85 9.33485 17.8444C9.65059 17.8388 9.95184 17.7109 10.1751 17.4876C10.3984 17.2643 10.5263 16.9631 10.5319 16.6473C10.5375 16.3316 10.4203 16.026 10.205 15.795L7.41 13L10.205 10.205ZM17.5175 8.4825C17.4059 8.36276 17.2714 8.26672 17.1219 8.20011C16.9724 8.13349 16.811 8.09768 16.6473 8.09479C16.4837 8.0919 16.3212 8.122 16.1694 8.1833C16.0176 8.2446 15.8798 8.33583 15.7641 8.45156C15.6483 8.56729 15.5571 8.70515 15.4958 8.8569C15.4345 9.00866 15.4044 9.17121 15.4073 9.33485C15.4102 9.49849 15.446 9.65988 15.5126 9.80937C15.5792 9.95887 15.6753 10.0934 15.795 10.205L18.59 13L15.795 15.795C15.6753 15.9066 15.5792 16.0411 15.5126 16.1906C15.446 16.3401 15.4102 16.5015 15.4073 16.6652C15.4044 16.8288 15.4345 16.9913 15.4958 17.1431C15.5571 17.2949 15.6483 17.4327 15.7641 17.5484C15.8798 17.6642 16.0176 17.7554 16.1694 17.8167C16.3212 17.878 16.4837 17.9081 16.6473 17.9052C16.811 17.9023 16.9724 17.8665 17.1219 17.7999C17.2714 17.7333 17.4059 17.6372 17.5175 17.5175L21.1737 13.8612C21.402 13.6327 21.5302 13.323 21.5302 13C21.5302 12.677 21.402 12.3673 21.1737 12.1388L17.5175 8.4825Z" fill="url(#paint0_linear_95_175)"/>
<path d="M10.205 10.205C10.4203 9.97396 10.5375 9.66839 10.5319 9.35265C10.5263 9.03691 10.3984 8.73566 10.1751 8.51236C9.95184 8.28907 9.65059 8.16116 9.33485 8.15559C9.01911 8.15002 8.71353 8.26722 8.4825 8.4825L4.82625 12.1388C4.59802 12.3673 4.46982 12.677 4.46982 13C4.46982 13.323 4.59802 13.6327 4.82625 13.8612L8.4825 17.5175C8.71353 17.7328 9.01911 17.85 9.33485 17.8444C9.65059 17.8388 9.95184 17.7109 10.1751 17.4876C10.3984 17.2643 10.5263 16.9631 10.5319 16.6473C10.5375 16.3316 10.4203 16.026 10.205 15.795L7.41 13L10.205 10.205Z" fill="white"/>
<path d="M17.5175 8.4825C17.4059 8.36276 17.2714 8.26672 17.1219 8.20011C16.9724 8.13349 16.811 8.09768 16.6473 8.09479C16.4837 8.0919 16.3212 8.122 16.1694 8.1833C16.0176 8.2446 15.8798 8.33583 15.7641 8.45156C15.6483 8.56729 15.5571 8.70515 15.4958 8.8569C15.4345 9.00866 15.4044 9.17121 15.4073 9.33485C15.4102 9.49849 15.446 9.65988 15.5126 9.80937C15.5792 9.95887 15.6753 10.0934 15.795 10.205L18.59 13L15.795 15.795C15.6753 15.9066 15.5792 16.0411 15.5126 16.1906C15.446 16.3401 15.4102 16.5015 15.4073 16.6652C15.4044 16.8288 15.4345 16.9913 15.4958 17.1431C15.5571 17.2949 15.6483 17.4327 15.7641 17.5484C15.8798 17.6642 16.0176 17.7554 16.1694 17.8167C16.3212 17.878 16.4837 17.9081 16.6473 17.9052C16.811 17.9023 16.9724 17.8665 17.1219 17.7999C17.2714 17.7333 17.4059 17.6372 17.5175 17.5175L21.1737 13.8612C21.402 13.6327 21.5302 13.323 21.5302 13C21.5302 12.677 21.402 12.3673 21.1737 12.1388L17.5175 8.4825Z" fill="white"/>
</g>
<defs>
<linearGradient id="paint0_linear_95_175" x1="1.5" y1="2.5" x2="22.5" y2="25" gradientUnits="userSpaceOnUse">
<stop offset="0.0573115" stop-color="#3D3DAB"/>
<stop offset="1" stop-color="#000088"/>
</linearGradient>
<clipPath id="clip0_95_175">
<rect width="26" height="26" fill="white"/>
</clipPath>
</defs>
</svg>
